<?xml version="1.0" encoding="UTF-8" standalone="no"?><!DOCTYPE svg PUBLIC "-//W3C//DTD SVG 1.1//EN" "http://www.w3.org/Graphics/SVG/1.1/DTD/svg11.dtd"><svg width="100%" height="100%" viewBox="0 0 483 177" version="1.1" xmlns="http://www.w3.org/2000/svg" xmlns:xlink="http://www.w3.org/1999/xlink" xml:space="preserve" xmlns:serif="http://www.serif.com/" style="fill-rule:evenodd;clip-rule:evenodd;stroke-linejoin:round;stroke-miterlimit:2;"><rect x="0" y="0" width="482.188" height="176.563" style="fill:none;"/><g><path d="M126.869,48.297c44.737,25.829 70.465,65.145 57.419,87.743c-13.047,22.598 -59.96,19.974 -104.697,-5.854c-44.737,-25.829 -70.466,-65.146 -57.419,-87.744c13.047,-22.597 59.96,-19.974 104.697,5.855Z" style="fill:#840084;"/><path d="M128.244,45.915c43.471,25.098 68.576,63.121 56.027,84.856c-12.549,21.736 -58.03,19.006 -101.501,-6.092c-43.471,-25.098 -68.576,-63.121 -56.027,-84.856c12.549,-21.736 58.03,-19.006 101.501,6.092Z" style="fill:#d002d8;"/><path d="M128.326,45.962c41.932,24.21 66.509,60.262 54.848,80.459c-11.66,20.197 -55.171,16.939 -97.103,-7.271c-41.932,-24.209 -66.509,-60.262 -54.848,-80.458c11.66,-20.197 55.171,-16.939 97.103,7.27Z" style="fill:#f35fff;"/></g><g><path d="M224.942,68.445l0,16.861l17.777,-0l-0.802,4.043l-16.975,0l0,23.117l-4.692,0l0,-48.217l25.139,-0l-0,4.196l-20.447,-0Z" style="fill-rule:nonzero;"/><path d="M225.359,68.861l20.447,0l-0,-5.029l-25.973,-0l0,49.051l5.526,0l-0,-23.117c-0,-0 16.901,-0 16.901,-0l0.966,-4.877l-17.867,0l-0,-16.028Zm-0.417,-0.416l0,16.861l17.777,-0l-0.802,4.043l-16.975,0l0,23.117l-4.692,0l-0,-48.217l25.139,-0l-0,4.196l-20.447,-0Z" style="fill:#fff;"/><path d="M272.778,74.014c1.526,0 3.103,0.42 4.731,1.259l-0.878,4.349l-0.343,-0c-1.475,-0.585 -2.848,-0.878 -4.12,-0.878c-1.831,0 -3.49,0.738 -4.978,2.213c-1.488,1.475 -3.16,3.789 -5.016,6.943l-0,24.566l-4.578,0l-0,-37.536l4.425,-0l-0,7.019c2.009,-2.747 3.846,-4.756 5.512,-6.027c1.666,-1.272 3.414,-1.908 5.245,-1.908Z" style="fill-rule:nonzero;"/><path d="M276.128,80.007l-0.006,0.032l0.85,-0l1.007,-4.992l-0.279,-0.144c-1.693,-0.873 -3.335,-1.305 -4.922,-1.305c-1.918,-0 -3.752,0.66 -5.498,1.992c-1.479,1.129 -3.094,2.83 -4.84,5.104c-0.002,0.003 -0.002,-6.181 -0.002,-6.181l-5.259,0l0,38.37l5.411,0l0,-24.869c1.81,-3.065 3.439,-5.32 4.893,-6.761c1.401,-1.389 2.961,-2.092 4.685,-2.092c1.223,0 2.542,0.284 3.96,0.846Zm-3.35,-5.993c1.526,0 3.103,0.42 4.731,1.259l-0.878,4.349l-0.343,-0c-1.475,-0.585 -2.848,-0.878 -4.12,-0.878c-1.831,0 -3.49,0.738 -4.978,2.213c-1.488,1.475 -3.16,3.789 -5.016,6.943l-0,24.566l-4.578,0l-0,-37.536l4.425,-0l-0,7.019c2.009,-2.747 3.846,-4.756 5.512,-6.027c1.666,-1.272 3.414,-1.908 5.245,-1.908Z" style="fill:#fff;"/><path d="M311.65,94.69l-25.062,-0c0.101,3.331 0.578,6.078 1.43,8.24c0.852,2.161 2.187,3.789 4.006,4.882c1.818,1.094 4.202,1.641 7.152,1.641c1.933,-0 3.707,-0.223 5.322,-0.668c1.614,-0.445 3.325,-1.189 5.13,-2.231l0.42,-0l-0,4.196c-1.322,0.839 -2.963,1.487 -4.921,1.945c-1.958,0.458 -4.196,0.687 -6.714,0.687c-5.671,-0 -9.874,-1.634 -12.607,-4.902c-2.734,-3.268 -4.101,-7.915 -4.101,-13.943c-0,-4.348 0.642,-8.061 1.926,-11.139c1.284,-3.077 3.128,-5.41 5.532,-7c2.403,-1.589 5.245,-2.384 8.525,-2.384c4.654,0 8.145,1.552 10.472,4.654c2.327,3.103 3.49,7.655 3.49,13.657l0,2.365Zm-14.381,-16.708c-3.103,-0 -5.589,1.125 -7.458,3.376c-1.869,2.25 -2.931,5.448 -3.185,9.593l20.485,0c-0.127,-4.374 -0.992,-7.629 -2.594,-9.765c-1.603,-2.136 -4.018,-3.204 -7.248,-3.204Z" style="fill-rule:nonzero;"/><path d="M309.426,106.215l-0.006,-0.022c-1.771,1.023 -3.449,1.754 -5.033,2.191c-1.581,0.435 -3.318,0.652 -5.211,0.652c-2.86,0 -5.175,-0.52 -6.938,-1.581c-1.741,-1.047 -3.016,-2.608 -3.832,-4.678c-0.801,-2.031 -1.26,-4.589 -1.387,-7.67l25.048,-0l-0,-2.782c-0,-6.114 -1.204,-10.746 -3.574,-13.907c-2.403,-3.203 -6,-4.82 -10.805,-4.82c-3.369,-0 -6.287,0.82 -8.755,2.453c-2.469,1.633 -4.367,4.026 -5.686,7.187c-1.303,3.122 -1.959,6.888 -1.959,11.299c0,6.145 1.411,10.879 4.198,14.21c2.805,3.353 7.108,5.052 12.927,5.052c2.553,-0 4.823,-0.234 6.809,-0.698c2.01,-0.47 3.692,-1.138 5.049,-1.999l0.194,-0.123l-0,-4.425l-0.417,0.416c-0,0 0.54,-0.833 -0.004,-0.833l-0.414,-0c-0.103,-0 -0.168,0.03 -0.204,0.078Zm2.224,-11.525l-25.062,-0c0.101,3.331 0.578,6.078 1.43,8.24c0.852,2.161 2.187,3.789 4.006,4.882c1.818,1.094 4.202,1.641 7.152,1.641c1.933,-0 3.707,-0.223 5.322,-0.668c1.614,-0.445 3.325,-1.189 5.13,-2.231l0.42,-0l-0,4.196c-1.322,0.839 -2.963,1.487 -4.921,1.945c-1.958,0.458 -4.196,0.687 -6.714,0.687c-5.671,-0 -9.874,-1.634 -12.607,-4.902c-2.734,-3.268 -4.101,-7.915 -4.101,-13.943c-0,-4.348 0.642,-8.061 1.926,-11.139c1.284,-3.077 3.128,-5.41 5.532,-7c2.403,-1.589 5.245,-2.384 8.525,-2.384c4.654,0 8.145,1.552 10.472,4.654c2.327,3.103 3.49,7.655 3.49,13.657l0,2.365Zm-14.381,-16.708c-3.103,-0 -5.589,1.125 -7.458,3.376c-1.869,2.25 -2.931,5.448 -3.185,9.593l20.485,0c-0.127,-4.374 -0.992,-7.629 -2.594,-9.765c-1.603,-2.136 -4.018,-3.204 -7.248,-3.204Zm-0,0.416c3.078,0 5.387,1.002 6.914,3.038c1.51,2.013 2.331,5.049 2.496,9.099c0,-0 -19.607,-0 -19.607,-0c0.294,-3.826 1.305,-6.799 3.06,-8.911c1.788,-2.154 4.168,-3.226 7.137,-3.226Z" style="fill:#fff;"/><path d="M351.209,94.69l-25.063,-0c0.102,3.331 0.579,6.078 1.431,8.24c0.851,2.161 2.187,3.789 4.005,4.882c1.818,1.094 4.202,1.641 7.152,1.641c1.933,-0 3.707,-0.223 5.322,-0.668c1.615,-0.445 3.325,-1.189 5.131,-2.231l0.419,-0l0,4.196c-1.322,0.839 -2.962,1.487 -4.921,1.945c-1.958,0.458 -4.196,0.687 -6.713,0.687c-5.672,-0 -9.874,-1.634 -12.608,-4.902c-2.734,-3.268 -4.101,-7.915 -4.101,-13.943c0,-4.348 0.642,-8.061 1.927,-11.139c1.284,-3.077 3.128,-5.41 5.531,-7c2.403,-1.589 5.245,-2.384 8.526,-2.384c4.654,0 8.144,1.552 10.471,4.654c2.327,3.103 3.491,7.655 3.491,13.657l-0,2.365Zm-14.382,-16.708c-3.102,-0 -5.588,1.125 -7.458,3.376c-1.869,2.25 -2.931,5.448 -3.185,9.593l20.485,0c-0.127,-4.374 -0.992,-7.629 -2.594,-9.765c-1.602,-2.136 -4.018,-3.204 -7.248,-3.204Z" style="fill-rule:nonzero;"/><path d="M348.986,106.221l-0.008,-0.028c-1.771,1.023 -3.448,1.754 -5.033,2.191c-1.581,0.435 -3.318,0.652 -5.211,0.652c-2.86,0 -5.174,-0.52 -6.937,-1.581c-1.742,-1.047 -3.017,-2.608 -3.833,-4.678c-0.8,-2.031 -1.26,-4.589 -1.386,-7.67l25.047,-0l0,-2.782c0,-6.114 -1.203,-10.746 -3.574,-13.907c-2.402,-3.203 -5.999,-4.82 -10.804,-4.82c-3.37,-0 -6.288,0.82 -8.756,2.453c-2.469,1.633 -4.367,4.026 -5.686,7.187c-1.303,3.122 -1.958,6.888 -1.958,11.299c-0,6.145 1.41,10.879 4.197,14.21c2.805,3.353 7.109,5.052 12.928,5.052c2.553,-0 4.822,-0.234 6.808,-0.698c2.01,-0.47 3.692,-1.138 5.05,-1.999l0.193,-0.123l0,-4.425l-0.417,0.416c0,0 0.549,-0.833 -0.001,-0.833l-0.412,-0c-0.107,-0 -0.172,0.032 -0.207,0.084Zm2.223,-11.531l-25.063,-0c0.102,3.331 0.579,6.078 1.431,8.24c0.851,2.161 2.187,3.789 4.005,4.882c1.818,1.094 4.202,1.641 7.152,1.641c1.933,-0 3.707,-0.223 5.322,-0.668c1.615,-0.445 3.325,-1.189 5.131,-2.231l0.419,-0l0,4.196c-1.322,0.839 -2.962,1.487 -4.921,1.945c-1.958,0.458 -4.196,0.687 -6.713,0.687c-5.672,-0 -9.874,-1.634 -12.608,-4.902c-2.734,-3.268 -4.101,-7.915 -4.101,-13.943c0,-4.348 0.642,-8.061 1.927,-11.139c1.284,-3.077 3.128,-5.41 5.531,-7c2.403,-1.589 5.245,-2.384 8.526,-2.384c4.654,0 8.144,1.552 10.471,4.654c2.327,3.103 3.491,7.655 3.491,13.657l-0,2.365Zm-14.382,-16.708c-3.102,-0 -5.588,1.125 -7.458,3.376c-1.869,2.25 -2.931,5.448 -3.185,9.593l20.485,0c-0.127,-4.374 -0.992,-7.629 -2.594,-9.765c-1.602,-2.136 -4.018,-3.204 -7.248,-3.204Zm0,0.416c3.078,0 5.388,1.002 6.915,3.038c1.509,2.013 2.33,5.049 2.496,9.099c-0.001,-0 -19.607,-0 -19.607,-0c0.293,-3.826 1.305,-6.799 3.059,-8.911c1.788,-2.154 4.169,-3.226 7.137,-3.226Z" style="fill:#fff;"/><path d="M385.426,108.308l-0.419,4.158l-25.025,0l0,-4.005l19.265,-29.373l-18.654,-0l-0,-4.158l23.689,-0l-0,4.005l-19.264,29.373l20.408,0Z" style="fill-rule:nonzero;"/><path d="M385.384,112.883l0.503,-4.991l-20.098,-0c0,-0 18.91,-28.832 18.91,-28.832l-0,-4.547l-24.523,0l0,4.991l18.299,0c0,0 -18.909,28.833 -18.909,28.833l-0,4.546l25.818,0Zm0.042,-4.575l-0.419,4.158l-25.025,0l0,-4.005l19.265,-29.373l-18.654,-0l-0,-4.158l23.689,-0l-0,4.005l-19.264,29.373l20.408,0Z" style="fill:#fff;"/><path d="M412.816,74.014c2.874,0 5.328,0.738 7.362,2.213c2.035,1.475 3.586,3.63 4.654,6.466c1.068,2.835 1.602,6.262 1.602,10.28c0,6.536 -1.481,11.572 -4.444,15.106c-2.962,3.535 -7.445,5.303 -13.447,5.303c-2.034,-0 -4.208,-0.286 -6.523,-0.858c-2.314,-0.573 -4.285,-1.278 -5.912,-2.118l-0,-50.468l4.577,-0l0,20.561c2.213,-2.314 4.247,-3.973 6.104,-4.978c1.856,-1.005 3.865,-1.507 6.027,-1.507Zm-3.815,35.401c4.324,-0 7.502,-1.266 9.537,-3.796c2.034,-2.53 3.052,-6.568 3.052,-12.112c-0,-5.086 -0.814,-8.945 -2.442,-11.577c-1.627,-2.632 -3.929,-3.948 -6.904,-3.948c-1.882,-0 -3.701,0.578 -5.455,1.735c-1.755,1.157 -3.79,3.109 -6.104,5.856l0,21.896c2.874,1.297 5.646,1.946 8.316,1.946Z" style="fill-rule:nonzero;"/><path d="M412.816,73.598c-2.233,-0 -4.308,0.519 -6.226,1.557c-1.684,0.911 -3.514,2.35 -5.487,4.321c-0.001,0.001 -0.001,-19.955 -0.001,-19.955l-5.411,0l-0,51.139l0.226,0.117c1.652,0.852 3.653,1.57 6.003,2.151c2.35,0.581 4.558,0.871 6.623,0.871c6.148,-0 10.732,-1.831 13.767,-5.452c3.016,-3.599 4.541,-8.72 4.541,-15.374c0,-4.076 -0.545,-7.551 -1.629,-10.427c-1.1,-2.921 -2.703,-5.137 -4.799,-6.657c-2.103,-1.524 -4.637,-2.291 -7.607,-2.291Zm-0,0.416c2.874,0 5.328,0.738 7.362,2.213c2.035,1.475 3.586,3.63 4.654,6.466c1.068,2.835 1.602,6.262 1.602,10.28c0,6.536 -1.481,11.572 -4.444,15.106c-2.962,3.535 -7.445,5.303 -13.447,5.303c-2.034,-0 -4.208,-0.286 -6.523,-0.858c-2.314,-0.573 -4.285,-1.278 -5.912,-2.118l-0,-50.468l4.577,-0l0,20.561c2.213,-2.314 4.247,-3.973 6.104,-4.978c1.856,-1.005 3.865,-1.507 6.027,-1.507Zm-3.815,35.401c4.324,-0 7.502,-1.266 9.537,-3.796c2.034,-2.53 3.052,-6.568 3.052,-12.112c-0,-5.086 -0.814,-8.945 -2.442,-11.577c-1.627,-2.632 -3.929,-3.948 -6.904,-3.948c-1.882,-0 -3.701,0.578 -5.455,1.735c-1.755,1.157 -3.79,3.109 -6.104,5.856l0,21.896c2.874,1.297 5.646,1.946 8.316,1.946Zm0,-0.417c-2.539,-0 -5.171,-0.602 -7.898,-1.799c-0.001,-0 -0.001,-21.473 -0.001,-21.473c2.241,-2.648 4.211,-4.536 5.916,-5.661c1.681,-1.109 3.423,-1.667 5.226,-1.667c2.823,0 5.005,1.253 6.55,3.751c1.596,2.581 2.379,6.37 2.379,11.358c0,5.422 -0.97,9.376 -2.96,11.851c-1.963,2.442 -5.04,3.64 -9.212,3.64Z" style="fill:#fff;"/><path d="M465.688,94.69l-25.063,-0c0.102,3.331 0.579,6.078 1.431,8.24c0.852,2.161 2.187,3.789 4.005,4.882c1.818,1.094 4.203,1.641 7.153,1.641c1.932,-0 3.706,-0.223 5.321,-0.668c1.615,-0.445 3.325,-1.189 5.131,-2.231l0.419,-0l0,4.196c-1.322,0.839 -2.962,1.487 -4.921,1.945c-1.958,0.458 -4.196,0.687 -6.713,0.687c-5.672,-0 -9.874,-1.634 -12.608,-4.902c-2.734,-3.268 -4.101,-7.915 -4.101,-13.943c0,-4.348 0.642,-8.061 1.927,-11.139c1.284,-3.077 3.128,-5.41 5.531,-7c2.403,-1.589 5.245,-2.384 8.526,-2.384c4.654,0 8.144,1.552 10.471,4.654c2.327,3.103 3.491,7.655 3.491,13.657l-0,2.365Zm-14.382,-16.708c-3.102,-0 -5.588,1.125 -7.458,3.376c-1.869,2.25 -2.93,5.448 -3.185,9.593l20.485,0c-0.127,-4.374 -0.992,-7.629 -2.594,-9.765c-1.602,-2.136 -4.018,-3.204 -7.248,-3.204Z" style="fill-rule:nonzero;"/><path d="M463.481,106.282l-0.024,-0.089c-1.771,1.023 -3.448,1.754 -5.033,2.191c-1.581,0.435 -3.318,0.652 -5.21,0.652c-2.861,0 -5.175,-0.52 -6.938,-1.581c-1.742,-1.047 -3.017,-2.608 -3.833,-4.678c-0.8,-2.031 -1.26,-4.589 -1.386,-7.67l25.047,-0l0,-2.782c0,-6.114 -1.203,-10.746 -3.573,-13.907c-2.403,-3.203 -6,-4.82 -10.805,-4.82c-3.37,-0 -6.287,0.82 -8.756,2.453c-2.468,1.633 -4.367,4.026 -5.686,7.187c-1.303,3.122 -1.958,6.888 -1.958,11.299c-0,6.145 1.41,10.879 4.197,14.21c2.805,3.353 7.109,5.052 12.928,5.052c2.553,-0 4.822,-0.234 6.808,-0.698c2.01,-0.47 3.692,-1.138 5.05,-1.999l0.193,-0.123l0,-4.425l-0.417,0.416c0,0 0.533,-0.833 -0.007,-0.833l-0.369,-0c-0.136,-0 -0.203,0.059 -0.228,0.145Zm2.207,-11.592l-25.063,-0c0.102,3.331 0.579,6.078 1.431,8.24c0.852,2.161 2.187,3.789 4.005,4.882c1.818,1.094 4.203,1.641 7.153,1.641c1.932,-0 3.706,-0.223 5.321,-0.668c1.615,-0.445 3.325,-1.189 5.131,-2.231l0.419,-0l0,4.196c-1.322,0.839 -2.962,1.487 -4.921,1.945c-1.958,0.458 -4.196,0.687 -6.713,0.687c-5.672,-0 -9.874,-1.634 -12.608,-4.902c-2.734,-3.268 -4.101,-7.915 -4.101,-13.943c0,-4.348 0.642,-8.061 1.927,-11.139c1.284,-3.077 3.128,-5.41 5.531,-7c2.403,-1.589 5.245,-2.384 8.526,-2.384c4.654,0 8.144,1.552 10.471,4.654c2.327,3.103 3.491,7.655 3.491,13.657l-0,2.365Zm-14.382,-16.708c-3.102,-0 -5.588,1.125 -7.458,3.376c-1.869,2.25 -2.93,5.448 -3.185,9.593l20.485,0c-0.127,-4.374 -0.992,-7.629 -2.594,-9.765c-1.602,-2.136 -4.018,-3.204 -7.248,-3.204Zm0,0.416c3.078,0 5.388,1.002 6.915,3.038c1.509,2.013 2.33,5.049 2.496,9.099c-0,-0 -19.607,-0 -19.607,-0c0.293,-3.826 1.305,-6.799 3.059,-8.911c1.788,-2.154 4.169,-3.226 7.137,-3.226Z" style="fill:#fff;"/></g></svg>